<svg width="32" height="32" viewBox="0 0 32 32" fill="none" xmlns="http://www.w3.org/2000/svg">
<path fill-rule="evenodd" clip-rule="evenodd" d="M16 2C8.268 2 2 8.268 2 16c0 2.85.847 5.506 2.304 7.724L2 30l6.418-2.244A13.926 13.926 0 0016 30c7.732 0 14-6.268 14-14S23.732 2 16 2zm0 25.2c-2.343 0-4.524-.72-6.32-1.944l-.453-.27-4.698 1.641 1.673-4.533-.295-.478A11.15 11.15 0 014.8 16c0-6.186 5.014-11.2 11.2-11.2S27.2 9.814 27.2 16 22.186 27.2 16 27.2z" fill="#25D366"/>
<path d="M23.125 19.475c-.313-.156-1.844-.906-2.125-1.031-.281-.125-.5-.188-.719.156-.219.344-.844 1.031-1.031 1.25-.188.219-.375.25-.688.094-.313-.156-1.313-.484-2.5-1.531-.925-.813-1.544-1.813-1.719-2.125-.188-.313-.031-.469.125-.625.156-.156.313-.375.469-.563.156-.188.219-.313.313-.531.094-.219.063-.406-.031-.563-.094-.156-.719-1.688-.969-2.313-.25-.594-.531-.5-.719-.5-.188 0-.406-.031-.625-.031-.219 0-.563.094-.844.406-.281.313-1.063 1.031-1.063 2.531s1.094 2.938 1.25 3.156c.156.219 2.188 3.344 5.281 4.688 2.063.906 2.875.719 3.375.688.5-.031 1.844-.75 2.094-1.469.25-.719.25-1.344.188-1.469-.063-.125-.281-.219-.594-.375z" fill="#25D366"/>
</svg>